<mxfile host="app.diagrams.net" agent="Mozilla/5.0 (Windows NT 10.0; Win64; x64) AppleWebKit/537.36 (KHTML, like Gecko) Chrome/130.0.0.0 Safari/537.36" version="24.8.6">
  <diagram name="Page-1" id="c5dDtRrChmcBjnWPc4go">
    <mxGraphModel dx="2934" dy="3328" grid="1" gridSize="10" guides="1" tooltips="1" connect="1" arrows="1" fold="1" page="1" pageScale="1" pageWidth="850" pageHeight="1100" math="0" shadow="0">
      <root>
        <mxCell id="0" />
        <mxCell id="1" parent="0" />
        <mxCell id="mQ3fIPidMLG5UKGIpwkF-2" value="" style="ellipse;whiteSpace=wrap;html=1;aspect=fixed;fillColor=#FFCCE6;" vertex="1" parent="1">
          <mxGeometry x="-300" y="-640" width="1500" height="1500" as="geometry" />
        </mxCell>
        <mxCell id="mQ3fIPidMLG5UKGIpwkF-3" value="" style="ellipse;whiteSpace=wrap;html=1;aspect=fixed;fillColor=#F19C99;" vertex="1" parent="1">
          <mxGeometry x="-110" y="-450" width="1260" height="1260" as="geometry" />
        </mxCell>
        <mxCell id="mQ3fIPidMLG5UKGIpwkF-4" value="" style="ellipse;whiteSpace=wrap;html=1;aspect=fixed;fillColor=#EBBBDA;" vertex="1" parent="1">
          <mxGeometry x="110" y="-200" width="970" height="970" as="geometry" />
        </mxCell>
        <mxCell id="mQ3fIPidMLG5UKGIpwkF-5" value="&lt;font style=&quot;font-size: 18px;&quot;&gt;&lt;b&gt;Onco Detect&lt;/b&gt;&lt;/font&gt;" style="ellipse;whiteSpace=wrap;html=1;aspect=fixed;fillColor=#FF66B3;" vertex="1" parent="1">
          <mxGeometry x="645" y="350" width="330" height="330" as="geometry" />
        </mxCell>
        <mxCell id="mQ3fIPidMLG5UKGIpwkF-6" value="" style="shape=actor;whiteSpace=wrap;html=1;" vertex="1" parent="1">
          <mxGeometry x="320" y="330" width="40" height="60" as="geometry" />
        </mxCell>
        <mxCell id="mQ3fIPidMLG5UKGIpwkF-7" value="" style="shape=actor;whiteSpace=wrap;html=1;" vertex="1" parent="1">
          <mxGeometry x="550" y="180" width="40" height="60" as="geometry" />
        </mxCell>
        <mxCell id="mQ3fIPidMLG5UKGIpwkF-8" value="" style="shape=actor;whiteSpace=wrap;html=1;" vertex="1" parent="1">
          <mxGeometry x="795" y="90" width="40" height="60" as="geometry" />
        </mxCell>
        <mxCell id="mQ3fIPidMLG5UKGIpwkF-9" value="&lt;b&gt;&lt;font style=&quot;font-size: 18px;&quot;&gt;The Product&lt;/font&gt;&lt;/b&gt;" style="text;html=1;align=center;verticalAlign=middle;resizable=0;points=[];autosize=1;strokeColor=none;fillColor=none;" vertex="1" parent="1">
          <mxGeometry x="740" y="415" width="130" height="40" as="geometry" />
        </mxCell>
        <mxCell id="mQ3fIPidMLG5UKGIpwkF-10" value="&lt;b&gt;&lt;font style=&quot;font-size: 18px;&quot;&gt;The System&lt;/font&gt;&lt;/b&gt;" style="text;html=1;align=center;verticalAlign=middle;resizable=0;points=[];autosize=1;strokeColor=none;fillColor=none;" vertex="1" parent="1">
          <mxGeometry x="460" y="-115" width="120" height="40" as="geometry" />
        </mxCell>
        <mxCell id="mQ3fIPidMLG5UKGIpwkF-11" value="&lt;b&gt;&lt;font style=&quot;font-size: 18px;&quot;&gt;Containing System&lt;/font&gt;&lt;/b&gt;" style="text;html=1;align=center;verticalAlign=middle;resizable=0;points=[];autosize=1;strokeColor=none;fillColor=none;" vertex="1" parent="1">
          <mxGeometry x="330" y="-405" width="190" height="40" as="geometry" />
        </mxCell>
        <mxCell id="mQ3fIPidMLG5UKGIpwkF-12" value="&lt;font style=&quot;font-size: 18px;&quot;&gt;&lt;b style=&quot;&quot;&gt;Wider Environment&lt;/b&gt;&lt;/font&gt;" style="text;html=1;align=center;verticalAlign=middle;resizable=0;points=[];autosize=1;strokeColor=none;fillColor=none;" vertex="1" parent="1">
          <mxGeometry x="330" y="-595" width="190" height="40" as="geometry" />
        </mxCell>
        <mxCell id="mQ3fIPidMLG5UKGIpwkF-13" value="" style="shape=actor;whiteSpace=wrap;html=1;" vertex="1" parent="1">
          <mxGeometry x="740" y="-350" width="40" height="60" as="geometry" />
        </mxCell>
        <mxCell id="mQ3fIPidMLG5UKGIpwkF-14" value="" style="shape=actor;whiteSpace=wrap;html=1;" vertex="1" parent="1">
          <mxGeometry x="270" y="-350" width="40" height="60" as="geometry" />
        </mxCell>
        <mxCell id="mQ3fIPidMLG5UKGIpwkF-15" value="" style="shape=actor;whiteSpace=wrap;html=1;" vertex="1" parent="1">
          <mxGeometry x="50" y="-140" width="40" height="60" as="geometry" />
        </mxCell>
        <mxCell id="mQ3fIPidMLG5UKGIpwkF-16" value="" style="shape=actor;whiteSpace=wrap;html=1;" vertex="1" parent="1">
          <mxGeometry x="575" y="-350" width="40" height="60" as="geometry" />
        </mxCell>
        <mxCell id="mQ3fIPidMLG5UKGIpwkF-17" value="" style="shape=actor;whiteSpace=wrap;html=1;" vertex="1" parent="1">
          <mxGeometry x="660" y="130" width="40" height="60" as="geometry" />
        </mxCell>
        <mxCell id="mQ3fIPidMLG5UKGIpwkF-18" value="" style="shape=actor;whiteSpace=wrap;html=1;" vertex="1" parent="1">
          <mxGeometry x="430" y="255" width="40" height="60" as="geometry" />
        </mxCell>
        <mxCell id="mQ3fIPidMLG5UKGIpwkF-19" value="" style="shape=actor;whiteSpace=wrap;html=1;fillColor=#FF0000;" vertex="1" parent="1">
          <mxGeometry x="970" y="-370" width="40" height="60" as="geometry" />
        </mxCell>
        <mxCell id="mQ3fIPidMLG5UKGIpwkF-20" value="" style="shape=actor;whiteSpace=wrap;html=1;" vertex="1" parent="1">
          <mxGeometry x="650" y="-550" width="40" height="60" as="geometry" />
        </mxCell>
        <mxCell id="mQ3fIPidMLG5UKGIpwkF-21" value="" style="shape=actor;whiteSpace=wrap;html=1;" vertex="1" parent="1">
          <mxGeometry x="30" y="-410" width="40" height="60" as="geometry" />
        </mxCell>
        <mxCell id="mQ3fIPidMLG5UKGIpwkF-22" value="" style="shape=actor;whiteSpace=wrap;html=1;fillColor=#FF0000;" vertex="1" parent="1">
          <mxGeometry x="-160" y="-250" width="40" height="60" as="geometry" />
        </mxCell>
        <mxCell id="mQ3fIPidMLG5UKGIpwkF-23" value="&lt;font style=&quot;font-size: 14px;&quot;&gt;Competitors&lt;/font&gt;" style="text;html=1;align=center;verticalAlign=middle;resizable=0;points=[];autosize=1;strokeColor=none;fillColor=none;" vertex="1" parent="1">
          <mxGeometry x="-190" y="-190" width="100" height="30" as="geometry" />
        </mxCell>
        <mxCell id="mQ3fIPidMLG5UKGIpwkF-24" value="&lt;font style=&quot;font-size: 14px;&quot;&gt;Community&lt;/font&gt;" style="text;html=1;align=center;verticalAlign=middle;resizable=0;points=[];autosize=1;strokeColor=none;fillColor=none;" vertex="1" parent="1">
          <mxGeometry x="625" y="-490" width="90" height="30" as="geometry" />
        </mxCell>
        <mxCell id="mQ3fIPidMLG5UKGIpwkF-25" value="&lt;font style=&quot;font-size: 14px;&quot;&gt;Hackers&lt;/font&gt;" style="text;html=1;align=center;verticalAlign=middle;resizable=0;points=[];autosize=1;strokeColor=none;fillColor=none;" vertex="1" parent="1">
          <mxGeometry x="955" y="-309" width="70" height="30" as="geometry" />
        </mxCell>
        <mxCell id="mQ3fIPidMLG5UKGIpwkF-27" value="&lt;font style=&quot;font-size: 14px;&quot;&gt;Evaluation Teams&lt;/font&gt;" style="text;html=1;align=center;verticalAlign=middle;resizable=0;points=[];autosize=1;strokeColor=none;fillColor=none;" vertex="1" parent="1">
          <mxGeometry x="-15" y="-355" width="130" height="30" as="geometry" />
        </mxCell>
        <mxCell id="mQ3fIPidMLG5UKGIpwkF-28" value="&lt;font style=&quot;font-size: 14px;&quot;&gt;Product Owner&lt;/font&gt;" style="text;html=1;align=center;verticalAlign=middle;resizable=0;points=[];autosize=1;strokeColor=none;fillColor=none;" vertex="1" parent="1">
          <mxGeometry x="10" y="-80" width="120" height="30" as="geometry" />
        </mxCell>
        <mxCell id="mQ3fIPidMLG5UKGIpwkF-29" value="&lt;font style=&quot;font-size: 14px;&quot;&gt;Doctors&lt;/font&gt;" style="text;html=1;align=center;verticalAlign=middle;resizable=0;points=[];autosize=1;strokeColor=none;fillColor=none;" vertex="1" parent="1">
          <mxGeometry x="305" y="390" width="70" height="30" as="geometry" />
        </mxCell>
        <mxCell id="mQ3fIPidMLG5UKGIpwkF-30" value="&lt;font style=&quot;font-size: 14px;&quot;&gt;Radiologists&lt;/font&gt;" style="text;html=1;align=center;verticalAlign=middle;resizable=0;points=[];autosize=1;strokeColor=none;fillColor=none;" vertex="1" parent="1">
          <mxGeometry x="400" y="315" width="100" height="30" as="geometry" />
        </mxCell>
        <mxCell id="mQ3fIPidMLG5UKGIpwkF-31" value="&lt;font style=&quot;font-size: 14px;&quot;&gt;PHO&lt;/font&gt;" style="text;html=1;align=center;verticalAlign=middle;resizable=0;points=[];autosize=1;strokeColor=none;fillColor=none;" vertex="1" parent="1">
          <mxGeometry x="545" y="243" width="50" height="30" as="geometry" />
        </mxCell>
        <mxCell id="mQ3fIPidMLG5UKGIpwkF-32" value="&lt;font style=&quot;font-size: 14px;&quot;&gt;Patients&lt;/font&gt;" style="text;html=1;align=center;verticalAlign=middle;resizable=0;points=[];autosize=1;strokeColor=none;fillColor=none;" vertex="1" parent="1">
          <mxGeometry x="645" y="190" width="70" height="30" as="geometry" />
        </mxCell>
        <mxCell id="mQ3fIPidMLG5UKGIpwkF-33" value="&lt;font style=&quot;font-size: 14px;&quot;&gt;Mammogram Data Providers&lt;/font&gt;" style="text;html=1;align=center;verticalAlign=middle;resizable=0;points=[];autosize=1;strokeColor=none;fillColor=none;" vertex="1" parent="1">
          <mxGeometry x="730" y="150" width="200" height="30" as="geometry" />
        </mxCell>
        <mxCell id="mQ3fIPidMLG5UKGIpwkF-34" value="&lt;font style=&quot;font-size: 14px;&quot;&gt;Backend System&lt;/font&gt;" style="text;html=1;align=center;verticalAlign=middle;resizable=0;points=[];autosize=1;strokeColor=none;fillColor=none;" vertex="1" parent="1">
          <mxGeometry x="225" y="-290" width="130" height="30" as="geometry" />
        </mxCell>
        <mxCell id="mQ3fIPidMLG5UKGIpwkF-35" value="&lt;font style=&quot;font-size: 14px;&quot;&gt;AI Model&lt;/font&gt;" style="text;html=1;align=center;verticalAlign=middle;resizable=0;points=[];autosize=1;strokeColor=none;fillColor=none;" vertex="1" parent="1">
          <mxGeometry x="555" y="-290" width="80" height="30" as="geometry" />
        </mxCell>
        <mxCell id="mQ3fIPidMLG5UKGIpwkF-36" value="&lt;font style=&quot;font-size: 14px;&quot;&gt;User Interface&lt;/font&gt;" style="text;html=1;align=center;verticalAlign=middle;resizable=0;points=[];autosize=1;strokeColor=none;fillColor=none;" vertex="1" parent="1">
          <mxGeometry x="715" y="-290" width="110" height="30" as="geometry" />
        </mxCell>
        <mxCell id="mQ3fIPidMLG5UKGIpwkF-37" value="" style="endArrow=classic;html=1;rounded=0;exitX=1.114;exitY=0.533;exitDx=0;exitDy=0;exitPerimeter=0;entryX=0.167;entryY=0.485;entryDx=0;entryDy=0;entryPerimeter=0;" edge="1" parent="1" source="mQ3fIPidMLG5UKGIpwkF-29" target="mQ3fIPidMLG5UKGIpwkF-5">
          <mxGeometry width="50" height="50" relative="1" as="geometry">
            <mxPoint x="540" y="660" as="sourcePoint" />
            <mxPoint x="590" y="610" as="targetPoint" />
          </mxGeometry>
        </mxCell>
        <mxCell id="mQ3fIPidMLG5UKGIpwkF-38" value="" style="endArrow=classic;html=1;rounded=0;exitX=0.95;exitY=0.967;exitDx=0;exitDy=0;exitPerimeter=0;entryX=0.167;entryY=0.333;entryDx=0;entryDy=0;entryPerimeter=0;" edge="1" parent="1" source="mQ3fIPidMLG5UKGIpwkF-30" target="mQ3fIPidMLG5UKGIpwkF-5">
          <mxGeometry width="50" height="50" relative="1" as="geometry">
            <mxPoint x="540" y="660" as="sourcePoint" />
            <mxPoint x="590" y="610" as="targetPoint" />
          </mxGeometry>
        </mxCell>
        <mxCell id="mQ3fIPidMLG5UKGIpwkF-39" value="" style="endArrow=classic;html=1;rounded=0;exitX=0.84;exitY=0.833;exitDx=0;exitDy=0;exitPerimeter=0;entryX=0.023;entryY=0.275;entryDx=0;entryDy=0;entryPerimeter=0;" edge="1" parent="1" source="mQ3fIPidMLG5UKGIpwkF-31" target="mQ3fIPidMLG5UKGIpwkF-9">
          <mxGeometry width="50" height="50" relative="1" as="geometry">
            <mxPoint x="540" y="660" as="sourcePoint" />
            <mxPoint x="590" y="610" as="targetPoint" />
          </mxGeometry>
        </mxCell>
        <mxCell id="mQ3fIPidMLG5UKGIpwkF-40" value="" style="endArrow=classic;html=1;rounded=0;exitX=0.8;exitY=1.133;exitDx=0;exitDy=0;exitPerimeter=0;" edge="1" parent="1" source="mQ3fIPidMLG5UKGIpwkF-32" target="mQ3fIPidMLG5UKGIpwkF-9">
          <mxGeometry width="50" height="50" relative="1" as="geometry">
            <mxPoint x="660" y="660" as="sourcePoint" />
            <mxPoint x="710" y="610" as="targetPoint" />
          </mxGeometry>
        </mxCell>
        <mxCell id="mQ3fIPidMLG5UKGIpwkF-41" value="" style="endArrow=classic;html=1;rounded=0;exitX=0.505;exitY=1.067;exitDx=0;exitDy=0;exitPerimeter=0;entryX=0.746;entryY=0.175;entryDx=0;entryDy=0;entryPerimeter=0;" edge="1" parent="1" source="mQ3fIPidMLG5UKGIpwkF-33" target="mQ3fIPidMLG5UKGIpwkF-9">
          <mxGeometry width="50" height="50" relative="1" as="geometry">
            <mxPoint x="840" y="660" as="sourcePoint" />
            <mxPoint x="890" y="610" as="targetPoint" />
          </mxGeometry>
        </mxCell>
        <mxCell id="mQ3fIPidMLG5UKGIpwkF-42" value="" style="endArrow=classic;html=1;rounded=0;fillColor=#FF0000;entryX=0.712;entryY=0.424;entryDx=0;entryDy=0;entryPerimeter=0;strokeColor=#FF0000;" edge="1" parent="1" source="mQ3fIPidMLG5UKGIpwkF-25" target="mQ3fIPidMLG5UKGIpwkF-5">
          <mxGeometry width="50" height="50" relative="1" as="geometry">
            <mxPoint x="1000" y="120" as="sourcePoint" />
            <mxPoint x="1050" y="70" as="targetPoint" />
          </mxGeometry>
        </mxCell>
        <mxCell id="mQ3fIPidMLG5UKGIpwkF-43" value="" style="endArrow=classic;html=1;rounded=0;exitX=1.05;exitY=0.8;exitDx=0;exitDy=0;exitPerimeter=0;entryX=0;entryY=0.75;entryDx=0;entryDy=0;strokeColor=#FF0000;" edge="1" parent="1" source="mQ3fIPidMLG5UKGIpwkF-23" target="mQ3fIPidMLG5UKGIpwkF-15">
          <mxGeometry width="50" height="50" relative="1" as="geometry">
            <mxPoint x="150" y="220" as="sourcePoint" />
            <mxPoint x="200" y="170" as="targetPoint" />
          </mxGeometry>
        </mxCell>
      </root>
    </mxGraphModel>
  </diagram>
</mxfile>
